<?xml version="1.0" encoding="UTF-8" standalone="no"?>
<!-- Created with Inkscape (http://www.inkscape.org/) -->

<svg
   width="100mm"
   height="100mm"
   viewBox="0 0 100 100"
   version="1.1"
   id="svg1"
   inkscape:version="1.3.2 (091e20e, 2023-11-25)"
   sodipodi:docname="gc_6__g.svg"
   inkscape:export-filename="ace-staff-clefs.jpg"
   inkscape:export-xdpi="300"
   inkscape:export-ydpi="300"
   xmlns:inkscape="http://www.inkscape.org/namespaces/inkscape"
   xmlns:sodipodi="http://sodipodi.sourceforge.net/DTD/sodipodi-0.dtd"
   xmlns="http://www.w3.org/2000/svg"
   xmlns:svg="http://www.w3.org/2000/svg">
  <sodipodi:namedview
     id="namedview1"
     pagecolor="#ffffff"
     bordercolor="#000000"
     borderopacity="0.25"
     inkscape:showpageshadow="2"
     inkscape:pageopacity="0.0"
     inkscape:pagecheckerboard="0"
     inkscape:deskcolor="#d1d1d1"
     inkscape:document-units="mm"
     inkscape:zoom="1"
     inkscape:cx="191"
     inkscape:cy="154"
     inkscape:window-width="1656"
     inkscape:window-height="981"
     inkscape:window-x="144"
     inkscape:window-y="118"
     inkscape:window-maximized="0"
     inkscape:current-layer="layer1"
     inkscape:export-bgcolor="#ffffffff" />
  <defs
     id="defs1" />
  <g
     inkscape:label="Layer 1"
     inkscape:groupmode="layer"
     id="layer1">
    <path
       style="fill:none;stroke:#333333;stroke-width:0.337463;stroke-dasharray:none;stroke-opacity:1"
       d="M 6.9502032,39.178728 H 94.026646"
       id="path161" />
    <path
       style="fill:none;stroke:#333333;stroke-width:0.337463;stroke-dasharray:none;stroke-opacity:1"
       d="M 6.9502032,46.114084 H 94.026646"
       id="path162" />
    <path
       style="fill:none;stroke:#333333;stroke-width:0.337463;stroke-dasharray:none;stroke-opacity:1"
       d="M 6.9502032,53.049445 H 94.026646"
       id="path163" />
    <path
       style="fill:none;stroke:#333333;stroke-width:0.337675;stroke-dasharray:none;stroke-opacity:1"
       d="M 6.9502032,59.984805 H 94.026646"
       id="path164" />
    <path
       style="fill:#333333;fill-opacity:1;stroke:#333333;stroke-width:1.92405;stroke-dasharray:none;stroke-opacity:1"
       d="M 93.191066,39.040346 V 66.986247"
       id="path165" />
    <path
       style="fill:none;stroke:#333333;stroke-width:0.337463;stroke-dasharray:none;stroke-opacity:1"
       d="m 49.166983,18.362292 h 10.82221"
       id="path182" />
    <path
       style="fill:none;stroke:#333333;stroke-width:0.337463;stroke-dasharray:none;stroke-opacity:1"
       d="m 49.166983,25.297651 h 10.82221"
       id="path183" />
    <path
       style="fill:none;stroke:#333333;stroke-width:0.337463;stroke-dasharray:none;stroke-opacity:1"
       d="m 49.166983,32.233022 h 10.82221"
       id="path184" />
    <path
       id="path198"
       style="fill:#333333;fill-opacity:1;stroke:none;stroke-width:0.0630632;stroke-dasharray:none;stroke-opacity:1"
       d="M 22.769153 29.260229 C 22.235695 29.273082 20.528498 31.164716 19.931083 34.438208 C 19.498463 36.80876 19.969324 39.528853 19.969324 39.528853 L 19.96829 39.528853 L 20.445264 43.328621 C 19.30172 44.887343 18.00488 46.386526 16.600537 47.842558 C 15.281878 49.209743 13.610668 51.512616 13.001274 53.266516 C 12.361164 55.106287 12.192031 57.732098 12.54342 59.274418 C 13.061277 61.547403 14.922055 63.902831 16.353007 64.904565 C 18.32569 66.285548 20.091772 66.656317 22.018811 66.625907 C 22.464359 66.618866 22.909387 66.556911 23.346895 66.447107 L 23.69106 69.187508 C 23.823954 70.246293 23.740497 71.357253 23.184631 72.039014 C 22.585065 72.774375 21.75453 73.158505 21.009054 73.049805 C 22.13218 72.131877 22.000314 69.840441 20.447331 69.240218 C 19.082512 68.712726 17.197472 69.449307 17.157092 71.322778 C 17.1165 73.206108 19.231373 73.95747 20.788395 73.87146 C 21.893937 73.810358 23.043803 73.507974 23.776843 72.585234 C 24.499944 71.674998 24.675913 70.533969 24.533903 69.395247 L 24.133927 66.189242 C 26.867537 65.119596 29.12992 62.201715 29.137756 58.936971 C 29.145943 55.617603 26.424694 52.898627 23.040971 53.154378 C 22.858919 53.168139 22.684848 53.187171 22.515422 53.209672 L 21.683948 46.542896 C 22.37605 45.668554 23.005796 44.746721 23.586674 43.79681 C 24.828052 41.766778 25.804571 39.603008 25.980326 37.333122 C 26.276158 33.51252 24.046338 29.22946 22.769153 29.260229 z M 23.714315 32.397506 C 25.128092 32.428531 24.149093 36.430982 23.676074 37.630778 C 23.030636 39.26791 22.167542 40.821493 21.157365 42.31783 L 20.787362 39.352637 L 20.788395 39.352637 C 20.711909 38.305403 20.616041 37.051328 20.889681 35.746139 C 21.190282 34.312349 22.428587 32.369296 23.714315 32.397506 z M 20.958411 47.416227 L 21.704618 53.362634 C 19.551208 53.884528 18.590175 55.188103 18.048511 56.447201 C 17.308819 58.166607 18.023939 60.730668 19.846851 61.38075 C 20.374723 61.569 19.968012 61.547298 20.241142 61.229854 C 19.485272 60.31735 18.999253 59.323349 19.583301 57.849699 C 20.006791 56.78116 20.915858 56.206316 22.029663 55.95059 L 23.233724 65.545353 C 22.886238 65.635768 22.508318 65.695861 22.097359 65.719503 C 20.577503 65.80694 18.319544 65.2626 17.098181 64.108232 C 15.93002 63.004151 15.094954 61.787705 14.826485 59.345215 C 14.580903 57.110956 14.84722 55.23116 15.583028 53.654606 C 16.521686 51.643422 18.182309 50.179266 19.869588 48.556726 C 20.249709 48.19119 20.611738 47.80963 20.958411 47.416227 z M 23.595976 55.781091 C 25.987428 55.784155 26.909196 57.757567 26.999386 59.253231 C 27.092597 60.799557 26.668485 64.057795 24.018689 65.265784 L 22.840983 55.818298 C 23.087935 55.795366 23.338968 55.780762 23.595976 55.781091 z " />
    <path
       style="fill:none;stroke:#333333;stroke-width:0.337463;stroke-dasharray:none;stroke-opacity:1"
       d="m 49.166983,11.426933 h 10.82221"
       id="path35" />
    <path
       id="path36"
       style="fill:#333333;stroke-width:0.0573981"
       d="m 54.578371,7.9592543 c -2.505314,-1.57e-4 -4.536459,1.5522361 -4.536736,3.4674027 -1.19e-4,1.915384 2.03114,3.468111 4.536736,3.467955 2.505374,-8.3e-5 4.536288,-1.55274 4.536169,-3.467955 C 59.11426,9.5116604 57.083464,7.9593373 54.578371,7.9592543 Z M 53.80246,8.596413 c 1.125477,0 2.070694,0.9766324 2.581123,2.0049 0.294715,0.593709 0.410554,1.103159 0.452287,1.650687 0.08766,1.150238 -0.356672,2.004903 -1.482152,2.004903 -1.12548,0 -2.133732,-0.945983 -2.580564,-2.004903 -0.243706,-0.577539 -0.399563,-1.110664 -0.45285,-1.650687 -0.113269,-1.1478826 0.356674,-2.0049 1.482156,-2.0049 z"
       sodipodi:nodetypes="cccccsssssss" />
    <path
       style="fill:none;stroke:#333333;stroke-width:0.337675;stroke-dasharray:none;stroke-opacity:1"
       d="M 6.9502032,66.817409 H 94.026646"
       id="path38" />
  </g>
</svg>
