<?xml version="1.0" encoding="UTF-8" standalone="no"?>
<!-- Created with Inkscape (http://www.inkscape.org/) -->

<svg
   width="100mm"
   height="100mm"
   viewBox="0 0 100 100"
   version="1.1"
   id="svg1"
   inkscape:version="1.3.2 (091e20e, 2023-11-25)"
   sodipodi:docname="bc_2__d.svg"
   inkscape:export-filename="ace-staff-clefs.jpg"
   inkscape:export-xdpi="300"
   inkscape:export-ydpi="300"
   xmlns:inkscape="http://www.inkscape.org/namespaces/inkscape"
   xmlns:sodipodi="http://sodipodi.sourceforge.net/DTD/sodipodi-0.dtd"
   xmlns="http://www.w3.org/2000/svg"
   xmlns:svg="http://www.w3.org/2000/svg">
  <sodipodi:namedview
     id="namedview1"
     pagecolor="#ffffff"
     bordercolor="#000000"
     borderopacity="0.25"
     inkscape:showpageshadow="2"
     inkscape:pageopacity="0.0"
     inkscape:pagecheckerboard="0"
     inkscape:deskcolor="#d1d1d1"
     inkscape:document-units="mm"
     inkscape:zoom="1"
     inkscape:cx="191"
     inkscape:cy="188"
     inkscape:window-width="1656"
     inkscape:window-height="981"
     inkscape:window-x="144"
     inkscape:window-y="118"
     inkscape:window-maximized="0"
     inkscape:current-layer="layer1"
     inkscape:export-bgcolor="#ffffffff" />
  <defs
     id="defs1" />
  <g
     inkscape:label="Layer 1"
     inkscape:groupmode="layer"
     id="layer1">
    <path
       style="fill:#333333;fill-opacity:1;stroke:none;stroke-width:0.0282273;stroke-dasharray:none;stroke-opacity:1"
       d="m 12.713982,66.164066 c 0,0 -0.2057,-0.32595 0.34738,-0.42733 1.30859,-0.23986 1.84678,-1.72264 1.84097,-3.33211 l -0.0658,-18.24072 c -0.0117,-3.24743 3.1163,-4.71638 5.61902,-4.67295 3.49996,0.0607 5.52149,2.34579 5.54666,4.50011 0.0299,2.56124 -2.85898,3.89449 -3.78704,3.99142 0.93948,-0.003 2.34404,0.19773 3.78237,0.93048 1.98701,1.01228 2.93989,2.89406 2.9237,5.70402 -0.0208,3.61085 -2.5821,5.14435 -5.65587,5.13409 -2.5823,-0.008 -5.19974,-1.5983 -5.22907,-4.44182 -0.0279,-2.70108 2.01986,-3.80956 3.98622,-3.74546 0.0881,0.16561 0.15972,0.44958 -0.0841,0.54079 -0.79475,0.20044 -1.51904,1.40495 -1.44325,3.27315 0.0876,2.15812 1.40587,3.87076 2.81465,3.8615 2.22408,-0.0146 3.01581,-2.19261 3.0246,-4.64962 0.008,-2.20967 -0.46505,-3.56916 -1.31727,-4.56817 -0.76299,-0.8944 -1.71216,-1.49476 -3.04033,-1.64378 -0.43868,-0.0412 -0.46165,-0.69085 -0.0181,-0.73489 1.16638,-0.26219 1.56642,-2.13778 1.56642,-3.49905 0,-1.75804 -1.15777,-4.10581 -3.04792,-4.11259 -1.895,-0.007 -3.21714,1.92739 -3.21291,4.26521 l 0.0328,18.14136 c 0.004,2.28898 -1.80442,3.76472 -4.58326,3.72638 z"
       id="path86"
       sodipodi:nodetypes="cssssscssssccssssccsssscc" />
    <path
       style="fill:none;stroke:#333333;stroke-width:0.337463;stroke-dasharray:none;stroke-opacity:1"
       d="M 6.9502032,39.178728 H 94.026646"
       id="path161" />
    <path
       style="fill:none;stroke:#333333;stroke-width:0.337463;stroke-dasharray:none;stroke-opacity:1"
       d="M 6.9502032,46.114084 H 94.026646"
       id="path162" />
    <path
       style="fill:none;stroke:#333333;stroke-width:0.337463;stroke-dasharray:none;stroke-opacity:1"
       d="M 6.9502032,53.049445 H 94.026646"
       id="path163" />
    <path
       style="fill:none;stroke:#333333;stroke-width:0.337675;stroke-dasharray:none;stroke-opacity:1"
       d="M 6.9502032,59.984805 H 94.026646"
       id="path164" />
    <path
       style="fill:#333333;fill-opacity:1;stroke:#333333;stroke-width:1.67238;stroke-dasharray:none;stroke-opacity:1"
       d="M 93.191066,39.040346 V 60.153643"
       id="path165" />
    <path
       id="path27"
       style="fill:#333333;stroke-width:0.0573981"
       d="m 54.578371,42.636048 c -2.505314,-1.57e-4 -4.536459,1.552237 -4.536736,3.467404 -1.19e-4,1.915384 2.03114,3.468111 4.536736,3.467955 2.505374,-8.3e-5 4.536288,-1.55274 4.536169,-3.467955 -2.8e-4,-1.914997 -2.031076,-3.467321 -4.536169,-3.467404 z m -0.775911,0.637159 c 1.125477,0 2.070694,0.976633 2.581123,2.004901 0.294715,0.593709 0.410554,1.103159 0.452287,1.650687 0.08766,1.150238 -0.356672,2.004903 -1.482152,2.004903 -1.12548,0 -2.133732,-0.945983 -2.580564,-2.004903 -0.243706,-0.577539 -0.399563,-1.110664 -0.45285,-1.650687 -0.113269,-1.147883 0.356674,-2.004901 1.482156,-2.004901 z"
       sodipodi:nodetypes="cccccsssssss" />
  </g>
</svg>
