<?xml version="1.0" encoding="UTF-8" standalone="no"?>
<!-- Created with Inkscape (http://www.inkscape.org/) -->

<svg
   width="100mm"
   height="100mm"
   viewBox="0 0 100 100"
   version="1.1"
   id="svg1"
   inkscape:version="1.3.2 (091e20e, 2023-11-25)"
   sodipodi:docname="cc_4__d.svg"
   inkscape:export-filename="ace-staff-clefs.jpg"
   inkscape:export-xdpi="300"
   inkscape:export-ydpi="300"
   xmlns:inkscape="http://www.inkscape.org/namespaces/inkscape"
   xmlns:sodipodi="http://sodipodi.sourceforge.net/DTD/sodipodi-0.dtd"
   xmlns="http://www.w3.org/2000/svg"
   xmlns:svg="http://www.w3.org/2000/svg">
  <sodipodi:namedview
     id="namedview1"
     pagecolor="#ffffff"
     bordercolor="#000000"
     borderopacity="0.25"
     inkscape:showpageshadow="2"
     inkscape:pageopacity="0.0"
     inkscape:pagecheckerboard="0"
     inkscape:deskcolor="#d1d1d1"
     inkscape:document-units="mm"
     inkscape:zoom="8.0000002"
     inkscape:cx="208.24999"
     inkscape:cy="186.625"
     inkscape:window-width="1656"
     inkscape:window-height="981"
     inkscape:window-x="144"
     inkscape:window-y="62"
     inkscape:window-maximized="0"
     inkscape:current-layer="layer1"
     inkscape:export-bgcolor="#ffffffff" />
  <defs
     id="defs1" />
  <g
     inkscape:label="Layer 1"
     inkscape:groupmode="layer"
     id="layer1">
    <path
       id="path61"
       style="fill:#333333;fill-opacity:1;stroke:none;stroke-width:0.0410964;stroke-dasharray:none;stroke-opacity:1"
       d="m 24.30431,39.439371 c -2.87716,0.0409 -4.61457,1.228744 -4.61457,2.787844 v 5.70145 c 0,0.80215 -0.54687,1.27072 -1.28799,1.49972 -0.13523,0.0418 -0.29994,0.0637 -0.33125,0.17727 0.0314,0.11362 0.19602,0.13548 0.33125,0.17728 0.74111,0.22901 1.28799,0.69756 1.28799,1.49972 v 5.70145 c 0,1.66304 1.97652,2.90375 5.20482,2.7807 3.30902,0.0287 3.10083,-1.91903 3.15215,-3.51268 -0.65175,-0.52334 -1.89186,-0.64387 -2.8068,-0.007 0,1.2714 0.20256,3.05913 -1.0607,3.10095 -1.45031,0.048 -2.01039,-1.10033 -2.01039,-2.72638 l -0.0564,-5.3369 c 0,-0.82535 -1.30932,-1.67 -3.08167,-1.67699 1.78231,-0.0798 3.08167,-0.85163 3.08167,-1.67698 l 0.0564,-5.3369 c 0,-1.62603 0.56008,-2.77433 2.01039,-2.72636 1.26327,0.0418 1.0607,1.82954 1.0607,3.10093 0.91494,0.63672 2.15505,0.51619 2.8068,-0.007 -0.0513,-1.59364 0.15688,-3.541354 -3.15215,-3.512684 -0.20178,-0.008 -0.39844,-0.01 -0.59025,-0.007 z m -4.45571,-0.0029 c -3.72395,0.0327 -5.0894,1.681694 -5.26854,3.238164 v 6.93098 6.93097 c 0.17914,1.55649 1.54459,3.20545 5.26854,3.23819 -0.14761,-0.50831 -0.3464,-0.30611 -1.15584,-0.63764 -0.93008,-0.38095 -1.65427,-1.14076 -1.69001,-3.23388 v -6.29764 -6.29764 c 0.0357,-2.09311 0.75993,-2.85292 1.69001,-3.23386 0.80944,-0.33155 1.00825,-0.12934 1.15584,-0.637644 z" />
    <path
       style="fill:none;stroke:#333333;stroke-width:0.337463;stroke-dasharray:none;stroke-opacity:1"
       d="M 6.9502032,39.178728 H 94.026646"
       id="path161" />
    <path
       style="fill:none;stroke:#333333;stroke-width:0.337463;stroke-dasharray:none;stroke-opacity:1"
       d="M 6.9502032,46.114084 H 94.026646"
       id="path162" />
    <path
       style="fill:none;stroke:#333333;stroke-width:0.337463;stroke-dasharray:none;stroke-opacity:1"
       d="M 6.9502032,53.049445 H 94.026646"
       id="path163" />
    <path
       style="fill:none;stroke:#333333;stroke-width:0.337675;stroke-dasharray:none;stroke-opacity:1"
       d="M 6.9502032,59.984805 H 94.026646"
       id="path164" />
    <path
       style="fill:#333333;fill-opacity:1;stroke:#333333;stroke-width:1.67238;stroke-dasharray:none;stroke-opacity:1"
       d="M 93.191066,39.040346 V 60.153643"
       id="path165" />
    <path
       id="path6"
       style="fill:#333333;stroke-width:0.0573981"
       d="m 54.578371,42.646405 c -2.505314,-1.57e-4 -4.536459,1.552237 -4.536736,3.467404 -1.19e-4,1.915384 2.03114,3.468111 4.536736,3.467955 2.505374,-8.3e-5 4.536288,-1.55274 4.536169,-3.467955 -2.8e-4,-1.914997 -2.031076,-3.467321 -4.536169,-3.467404 z m -0.775911,0.637159 c 1.125477,0 2.070694,0.976633 2.581123,2.004901 0.294715,0.593709 0.410554,1.103159 0.452287,1.650687 0.08766,1.150238 -0.356672,2.004903 -1.482152,2.004903 -1.12548,0 -2.133732,-0.945983 -2.580564,-2.004903 -0.243706,-0.577539 -0.399563,-1.110664 -0.45285,-1.650687 -0.113269,-1.147883 0.356674,-2.004901 1.482156,-2.004901 z"
       sodipodi:nodetypes="cccccsssssss" />
  </g>
</svg>
