<?xml version="1.0" encoding="UTF-8" standalone="no"?>
<!-- Created with Inkscape (http://www.inkscape.org/) -->

<svg
   width="100mm"
   height="100mm"
   viewBox="0 0 100 100"
   version="1.1"
   id="svg1"
   inkscape:version="1.3.2 (091e20e, 2023-11-25)"
   sodipodi:docname="dc_6__f.svg"
   inkscape:export-filename="ace-staff-clefs.jpg"
   inkscape:export-xdpi="300"
   inkscape:export-ydpi="300"
   xmlns:inkscape="http://www.inkscape.org/namespaces/inkscape"
   xmlns:sodipodi="http://sodipodi.sourceforge.net/DTD/sodipodi-0.dtd"
   xmlns="http://www.w3.org/2000/svg"
   xmlns:svg="http://www.w3.org/2000/svg">
  <sodipodi:namedview
     id="namedview1"
     pagecolor="#ffffff"
     bordercolor="#000000"
     borderopacity="0.25"
     inkscape:showpageshadow="2"
     inkscape:pageopacity="0.0"
     inkscape:pagecheckerboard="0"
     inkscape:deskcolor="#d1d1d1"
     inkscape:document-units="mm"
     inkscape:zoom="1"
     inkscape:cx="191"
     inkscape:cy="188"
     inkscape:window-width="1656"
     inkscape:window-height="981"
     inkscape:window-x="144"
     inkscape:window-y="118"
     inkscape:window-maximized="0"
     inkscape:current-layer="layer1"
     inkscape:export-bgcolor="#ffffffff" />
  <defs
     id="defs1" />
  <g
     inkscape:label="Layer 1"
     inkscape:groupmode="layer"
     id="layer1">
    <path
       id="path32"
       style="vector-effect:non-scaling-stroke;fill:#333333;stroke:none;stroke-width:0.744821;stroke-dasharray:none;stroke-opacity:1;-inkscape-stroke:hairline"
       d="m 19.173669,39.528723 c -3.49918,-0.01023 -6.08888,1.595819 -6.20324,4.376477 -0.11961,2.908432 2.72498,3.567655 3.99097,3.606498 l 0.08113,-0.340548 c -0.89977,-0.599674 -1.60074,-1.383595 -1.57458,-3.146578 0.0262,-1.762983 1.01371,-4.003948 3.77858,-3.982185 1.89805,0.01494 4.53581,0.366665 6.73757,4.879288 1.28669,2.637102 1.46907,5.631668 1.20045,8.407756 -0.26818,2.771552 -1.62356,5.730286 -5.07411,5.740735 -0.80726,0.0024 -1.55133,-0.300152 -2.2686,-0.725537 0.62155,-0.52649 1.0457,-1.171259 1.05937,-1.894975 l 0.16226,-8.601542 c 0.0203,-1.077183 -0.13801,-2.180823 1.80093,-3.003951 -0.0668,-0.274176 0.03505,-0.304942 -0.05065,-0.300757 -2.56816,0.125417 -3.92841,2.31822 -3.95014,3.203422 l -0.20877,8.50439 c -0.0083,0.336776 -0.0934,0.726198 -0.25115,1.108977 -1.14665,-0.847934 -2.28339,-1.711225 -3.56568,-1.799374 -1.03164,-0.07092 -2.17986,0.743267 -2.23035,2.228288 -0.026,0.765268 0.55896,1.522045 1.34927,1.795239 0.70889,0.245048 1.34316,0.253482 2.09755,0.222209 l 0.0052,-0.633036 c -0.64477,-0.102278 -0.76492,-0.686831 -0.71056,-1.289844 0.0528,-0.585133 0.41953,-1.216612 1.00769,-1.000973 0.62332,0.228529 1.20152,0.637342 1.7539,1.040247 -0.43057,0.669306 -1.11468,1.212953 -2.05052,1.25057 l -0.0052,0.633036 c 0.9698,-0.02684 2.24538,-0.420966 3.2458,-1.067119 1.41329,0.880568 2.29736,1.076937 3.74241,1.076937 2.60053,0 5.96399,-1.570233 6.60941,-6.369637 0.43694,-3.249087 -0.13727,-6.354954 -1.76113,-9.014953 -2.03776,-3.338034 -4.83698,-4.891719 -8.71781,-4.90306 z" />
    <path
       style="fill:none;stroke:#333333;stroke-width:0.337463;stroke-dasharray:none;stroke-opacity:1"
       d="M 6.9502032,39.178728 H 94.026646"
       id="path161" />
    <path
       style="fill:none;stroke:#333333;stroke-width:0.337463;stroke-dasharray:none;stroke-opacity:1"
       d="M 6.9502032,46.114084 H 94.026646"
       id="path162" />
    <path
       style="fill:none;stroke:#333333;stroke-width:0.337463;stroke-dasharray:none;stroke-opacity:1"
       d="M 6.9502032,53.049445 H 94.026646"
       id="path163" />
    <path
       style="fill:none;stroke:#333333;stroke-width:0.337675;stroke-dasharray:none;stroke-opacity:1"
       d="M 6.9502032,59.984805 H 94.026646"
       id="path164" />
    <path
       style="fill:#333333;fill-opacity:1;stroke:#333333;stroke-width:1.67238;stroke-dasharray:none;stroke-opacity:1"
       d="M 93.191066,39.040346 V 60.153643"
       id="path165" />
    <path
       id="path26"
       style="fill:#333333;stroke-width:0.0573981"
       d="m 54.578371,35.700689 c -2.505314,-1.57e-4 -4.536459,1.552237 -4.536736,3.467404 -1.19e-4,1.915384 2.03114,3.468111 4.536736,3.467955 2.505374,-8.3e-5 4.536288,-1.55274 4.536169,-3.467955 -2.8e-4,-1.914997 -2.031076,-3.467321 -4.536169,-3.467404 z m -0.775911,0.637159 c 1.125477,0 2.070694,0.976633 2.581123,2.004901 0.294715,0.593709 0.410554,1.103159 0.452287,1.650687 0.08766,1.150238 -0.356672,2.004903 -1.482152,2.004903 -1.12548,0 -2.133732,-0.945983 -2.580564,-2.004903 -0.243706,-0.577539 -0.399563,-1.110664 -0.45285,-1.650687 -0.113269,-1.147883 0.356674,-2.004901 1.482156,-2.004901 z"
       sodipodi:nodetypes="cccccsssssss" />
  </g>
</svg>
