<?xml version="1.0" encoding="UTF-8" standalone="no"?>
<!-- Created with Inkscape (http://www.inkscape.org/) -->

<svg
   width="100mm"
   height="100mm"
   viewBox="0 0 100 100"
   version="1.1"
   id="svg1"
   inkscape:version="1.3.2 (091e20e, 2023-11-25)"
   sodipodi:docname="fc_3__g.svg"
   inkscape:export-filename="ace-staff-clefs.jpg"
   inkscape:export-xdpi="300"
   inkscape:export-ydpi="300"
   xmlns:inkscape="http://www.inkscape.org/namespaces/inkscape"
   xmlns:sodipodi="http://sodipodi.sourceforge.net/DTD/sodipodi-0.dtd"
   xmlns="http://www.w3.org/2000/svg"
   xmlns:svg="http://www.w3.org/2000/svg">
  <sodipodi:namedview
     id="namedview1"
     pagecolor="#ffffff"
     bordercolor="#000000"
     borderopacity="0.25"
     inkscape:showpageshadow="2"
     inkscape:pageopacity="0.0"
     inkscape:pagecheckerboard="0"
     inkscape:deskcolor="#d1d1d1"
     inkscape:document-units="mm"
     inkscape:zoom="2"
     inkscape:cx="206"
     inkscape:cy="122.5"
     inkscape:window-width="1656"
     inkscape:window-height="981"
     inkscape:window-x="144"
     inkscape:window-y="90"
     inkscape:window-maximized="0"
     inkscape:current-layer="layer1"
     inkscape:export-bgcolor="#ffffffff" />
  <defs
     id="defs1" />
  <g
     inkscape:label="Layer 1"
     inkscape:groupmode="layer"
     id="layer1">
    <path
       style="fill:none;stroke:#333333;stroke-width:0.337463;stroke-dasharray:none;stroke-opacity:1"
       d="M 6.9502032,39.178728 H 94.026646"
       id="path161" />
    <path
       style="fill:none;stroke:#333333;stroke-width:0.337463;stroke-dasharray:none;stroke-opacity:1"
       d="M 6.9502032,46.114084 H 94.026646"
       id="path162" />
    <path
       style="fill:none;stroke:#333333;stroke-width:0.337463;stroke-dasharray:none;stroke-opacity:1"
       d="M 6.9502032,53.049445 H 94.026646"
       id="path163" />
    <path
       style="fill:none;stroke:#333333;stroke-width:0.337675;stroke-dasharray:none;stroke-opacity:1"
       d="M 6.9502032,59.984805 H 94.026646"
       id="path164" />
    <path
       style="fill:#333333;fill-opacity:1;stroke:#333333;stroke-width:1.67238;stroke-dasharray:none;stroke-opacity:1"
       d="M 93.191066,39.040346 V 60.153643"
       id="path165" />
    <g
       id="g23"
       transform="translate(-5.7087773,-100.36012)">
      <path
         style="fill:#333333;fill-opacity:1;stroke:none;stroke-width:0.053;stroke-dasharray:none;stroke-opacity:1"
         d="m 27.949281,141.26179 c -0.56749,0.55937 -2.207534,0.81495 -2.977214,-0.042 -0.7895,-0.87899 -0.72763,-2.84832 -0.22623,-3.91819 1.05861,-2.25885 2.66398,-4.11159 5.81993,-4.11951 3.24509,-0.008 6.04941,1.91372 6.00187,6.23961 -0.0406,3.69158 -0.9656,5.92645 -2.82411,8.36534 -2.33142,3.05949 -5.02569,5.05727 -9.17434,7.23961 -0.15146,-0.19625 -0.46021,-0.25895 -0.15211,-0.60838 3.87195,-2.60975 5.549112,-4.64814 7.22559,-7.24078 1.588956,-2.45729 2.205992,-4.76049 2.198702,-7.46921 -0.007,-2.73012 -1.265712,-5.62329 -3.761502,-5.69441 -2.05648,-0.0586 -3.759841,1.46718 -4.550747,3.58416 1.18612,-0.10558 2.298137,0.12231 2.678287,0.75049 0.47319,0.78193 0.480724,2.18496 -0.258126,2.91324 z"
         id="path22"
         sodipodi:nodetypes="ssssssccssscss" />
      <ellipse
         style="fill:#333333;fill-opacity:1;stroke:none;stroke-width:0.0607692;stroke-dasharray:none;stroke-opacity:1"
         id="ellipse22"
         cx="39.34716"
         cy="142.86354"
         rx="1.323233"
         ry="1.2928139" />
      <ellipse
         style="fill:#333333;fill-opacity:1;stroke:none;stroke-width:0.0607692;stroke-dasharray:none;stroke-opacity:1"
         id="ellipse23"
         cx="39.34716"
         cy="136.11369"
         rx="1.323233"
         ry="1.2928139" />
    </g>
    <path
       id="path12"
       style="fill:#333333;stroke-width:0.0573981"
       d="m 54.578371,32.243369 c -2.505314,-1.57e-4 -4.536459,1.552237 -4.536736,3.467404 -1.19e-4,1.915384 2.03114,3.468111 4.536736,3.467955 2.505374,-8.3e-5 4.536288,-1.55274 4.536169,-3.467955 -2.8e-4,-1.914997 -2.031076,-3.467321 -4.536169,-3.467404 z m -0.775911,0.637159 c 1.125477,0 2.070694,0.976633 2.581123,2.004901 0.294715,0.593709 0.410554,1.103159 0.452287,1.650687 0.08766,1.150238 -0.356672,2.004903 -1.482152,2.004903 -1.12548,0 -2.133732,-0.945983 -2.580564,-2.004903 -0.243706,-0.577539 -0.399563,-1.110664 -0.45285,-1.650687 -0.113269,-1.147883 0.356674,-2.004901 1.482156,-2.004901 z"
       sodipodi:nodetypes="cccccsssssss" />
  </g>
</svg>
