<?xml version="1.0" encoding="UTF-8" standalone="no"?>
<!-- Created with Inkscape (http://www.inkscape.org/) -->

<svg
   width="100mm"
   height="100mm"
   viewBox="0 0 100 100"
   version="1.1"
   id="svg1"
   inkscape:version="1.3.2 (091e20e, 2023-11-25)"
   sodipodi:docname="gc_6__f.svg"
   inkscape:export-filename="ace-staff-clefs.jpg"
   inkscape:export-xdpi="300"
   inkscape:export-ydpi="300"
   xmlns:inkscape="http://www.inkscape.org/namespaces/inkscape"
   xmlns:sodipodi="http://sodipodi.sourceforge.net/DTD/sodipodi-0.dtd"
   xmlns="http://www.w3.org/2000/svg"
   xmlns:svg="http://www.w3.org/2000/svg">
  <sodipodi:namedview
     id="namedview1"
     pagecolor="#ffffff"
     bordercolor="#000000"
     borderopacity="0.25"
     inkscape:showpageshadow="2"
     inkscape:pageopacity="0.0"
     inkscape:pagecheckerboard="0"
     inkscape:deskcolor="#d1d1d1"
     inkscape:document-units="mm"
     inkscape:zoom="1.4142136"
     inkscape:cx="190.21172"
     inkscape:cy="188.0904"
     inkscape:window-width="1656"
     inkscape:window-height="981"
     inkscape:window-x="144"
     inkscape:window-y="90"
     inkscape:window-maximized="0"
     inkscape:current-layer="layer1"
     inkscape:export-bgcolor="#ffffffff" />
  <defs
     id="defs1" />
  <g
     inkscape:label="Layer 1"
     inkscape:groupmode="layer"
     id="layer1">
    <path
       style="fill:none;stroke:#333333;stroke-width:0.337463;stroke-dasharray:none;stroke-opacity:1"
       d="M 6.9502032,39.178728 H 94.026646"
       id="path161" />
    <path
       style="fill:none;stroke:#333333;stroke-width:0.337463;stroke-dasharray:none;stroke-opacity:1"
       d="M 6.9502032,46.114084 H 94.026646"
       id="path162" />
    <path
       style="fill:none;stroke:#333333;stroke-width:0.337463;stroke-dasharray:none;stroke-opacity:1"
       d="M 6.9502032,53.049445 H 94.026646"
       id="path163" />
    <path
       style="fill:none;stroke:#333333;stroke-width:0.337675;stroke-dasharray:none;stroke-opacity:1"
       d="M 6.9502032,59.984805 H 94.026646"
       id="path164" />
    <path
       style="fill:#333333;fill-opacity:1;stroke:#333333;stroke-width:1.67238;stroke-dasharray:none;stroke-opacity:1"
       d="M 93.191066,39.040346 V 60.153643"
       id="path165" />
    <g
       id="g203"
       transform="matrix(1.2237577,0,0,1.1346608,-16.623585,-68.558941)">
      <path
         style="fill:#333333;fill-opacity:1;stroke:none;stroke-width:0.0535174;stroke-dasharray:none;stroke-opacity:1"
         d="m 32.412087,107.26834 c 2.76503,-0.2254 4.98863,2.17081 4.98194,5.09624 -0.008,3.59844 -2.895405,6.72684 -5.817053,6.77664 -1.574692,0.0268 -3.017788,-0.29998 -4.629778,-1.51707 -1.16931,-0.88285 -2.689916,-2.95857 -3.113086,-4.9618 -0.28714,-1.35928 -0.149193,-3.67346 0.373877,-5.29489 0.49797,-1.54575 1.86384,-3.57563 2.94139,-4.78056 1.26638,-1.41609 2.43435,-2.87469 3.43471,-4.403602 0.95519,-1.459878 1.75758,-2.983859 2.34694,-4.596134 0.38653,-1.057406 1.18668,-4.584827 0.0314,-4.61217 -1.05064,-0.02486 -2.062693,1.687503 -2.308331,2.951132 -0.223606,1.150292 -0.145341,2.255815 -0.08284,3.178765 l -0.66927,0.155282 c 0,0 -0.384529,-2.397582 -0.03101,-4.4868 0.488181,-2.884999 1.88322,-4.552196 2.319138,-4.563523 1.043659,-0.02712 2.865648,3.747863 2.623908,7.115042 -0.14362,2.0005 -0.94168,3.907444 -1.95608,5.696555 -0.85856,1.514253 -1.84058,2.953693 -3.03728,4.194843 -1.37877,1.42998 -2.735694,2.72053 -3.502724,4.49303 -0.60127,1.38945 -0.819091,3.04629 -0.618413,5.01539 0.219381,2.15262 0.90202,3.22467 1.85659,4.19772 0.998044,1.01737 2.843064,1.49709 4.085024,1.42003 3.5782,-0.22201 4.097193,-4.05713 4.005423,-5.69908 -0.0737,-1.31816 -0.82667,-3.05705 -2.78086,-3.05975 -1.46679,-0.002 -2.780584,0.46598 -3.27914,1.8227 -0.477258,1.29876 -0.08007,2.17488 0.537591,2.97909 -0.22319,0.27977 0.109176,0.29904 -0.322178,0.13313 -1.489603,-0.57293 -2.073906,-2.8329 -1.469463,-4.34825 0.525536,-1.31753 1.5284,-2.69399 4.079571,-2.90196 z"
         id="path198"
         sodipodi:nodetypes="sssssssssssccsssssssssssscssss" />
      <path
         style="vector-effect:non-scaling-stroke;fill:#333333;fill-opacity:1;stroke:none;stroke-width:0.267167;stroke-dasharray:none;stroke-opacity:1;-inkscape-stroke:hairline"
         d="m 30.570547,95.104891 3.061534,26.476839 c 0.116044,1.00358 -0.02782,2.00945 -0.61871,2.81166 -0.599008,0.81323 -1.53867,1.07943 -2.44207,1.13328 -1.27233,0.0758 -3.00062,-0.58598 -2.96745,-2.2458 0.033,-1.65113 1.5734,-2.30053 2.68867,-1.83564 1.26903,0.52899 1.37688,2.54864 0.45911,3.35763 0.60917,0.0958 1.287911,-0.2431 1.77785,-0.89119 0.454229,-0.60085 0.522335,-1.57955 0.41374,-2.51268 L 29.901257,95.260173 Z"
         id="path199"
         sodipodi:nodetypes="cssssscsscc" />
    </g>
    <path
       style="fill:none;stroke:#333333;stroke-width:0.337463;stroke-dasharray:none;stroke-opacity:1"
       d="m 49.166983,18.37264 h 10.82221"
       id="path9" />
    <path
       style="fill:none;stroke:#333333;stroke-width:0.337463;stroke-dasharray:none;stroke-opacity:1"
       d="m 49.166983,25.30801 h 10.82221"
       id="path10" />
    <path
       style="fill:none;stroke:#333333;stroke-width:0.337463;stroke-dasharray:none;stroke-opacity:1"
       d="m 49.166983,32.243369 h 10.82221"
       id="path11" />
    <path
       id="path16"
       style="fill:#333333;stroke-width:0.0573981"
       d="m 54.578371,11.437292 c -2.505314,-1.57e-4 -4.536459,1.552237 -4.536736,3.467404 -1.19e-4,1.915384 2.03114,3.468111 4.536736,3.467955 2.505374,-8.3e-5 4.536288,-1.55274 4.536169,-3.467955 -2.8e-4,-1.914997 -2.031076,-3.467321 -4.536169,-3.467404 z m -0.775911,0.637159 c 1.125477,0 2.070694,0.976633 2.581123,2.004901 0.294715,0.593709 0.410554,1.103159 0.452287,1.650687 0.08766,1.150238 -0.356672,2.004903 -1.482152,2.004903 -1.12548,0 -2.133732,-0.945983 -2.580564,-2.004903 -0.243706,-0.577539 -0.399563,-1.110664 -0.45285,-1.650687 -0.113269,-1.147883 0.356674,-2.004901 1.482156,-2.004901 z"
       sodipodi:nodetypes="cccccsssssss" />
  </g>
</svg>
